<svg width="189" height="85" viewBox="0 0 189 85" fill="none" xmlns="http://www.w3.org/2000/svg">
<path d="M174.278 15.3664V19.6347C174.278 20.0005 174.278 20.1225 174.535 20.1225C174.791 20.1225 174.919 20.0005 175.047 19.7566L176.455 17.8054C178.632 15.0005 180.937 13.5371 183.37 13.5371C185.803 13.5371 185.675 13.903 186.443 14.6347C187.212 15.2444 187.596 16.0981 187.596 17.0737C187.596 18.0493 187.34 18.903 186.699 19.5127C186.187 20.1225 185.547 20.3664 184.907 20.3664C184.266 20.3664 183.882 20.2444 183.498 19.8786C183.114 19.6347 182.73 19.2688 182.346 18.903C181.961 18.5371 181.577 18.1713 181.193 17.8054C180.809 17.5615 180.297 17.3176 179.657 17.3176C179.016 17.3176 178.504 17.5615 177.864 17.9274C177.352 18.4152 176.711 19.1469 176.199 20.1225C175.687 21.0981 175.303 22.3176 174.919 23.781C174.663 25.2444 174.406 27.0737 174.406 29.1469V41.342C174.406 42.6835 174.406 43.5371 174.663 44.1469C174.919 44.6347 175.303 45.1225 176.199 45.3664C176.839 45.6103 177.48 45.7322 177.992 45.8542C178.504 45.8542 179.016 45.8542 179.272 45.9761C179.657 45.9761 179.913 45.9761 180.041 46.0981C180.297 46.0981 180.297 46.342 180.297 46.7078C180.297 47.1956 179.913 47.5615 179.016 47.5615C178.12 47.5615 177.352 47.5615 176.199 47.4396C175.047 47.3176 173.638 47.1956 172.102 47.1956C170.565 47.1956 170.053 47.1956 169.284 47.3176C168.516 47.3176 167.748 47.4396 167.108 47.4396C166.467 47.4396 166.339 47.4396 166.211 47.4396C166.083 47.4396 165.955 47.0737 165.955 46.8298C165.955 46.342 166.083 46.0981 166.467 46.0981C166.851 46.0981 167.492 45.9761 168.388 45.6103C169.028 45.3664 169.541 45.0005 169.669 44.3908C169.925 43.781 169.925 42.8054 169.925 41.4639V21.8298C169.925 20.9761 169.797 20.3664 169.412 20.0005C169.156 19.7566 168.772 19.5127 168.26 19.5127C167.876 19.5127 167.62 19.5127 167.236 19.5127C166.851 19.5127 166.723 19.3908 166.723 19.0249C166.723 18.6591 166.979 18.2932 167.492 18.1713C168.004 17.9274 168.644 17.5615 169.412 17.0737C170.565 16.342 171.461 15.4883 172.102 14.7566C172.742 14.0249 173.254 13.5371 173.51 13.5371C173.766 13.5371 173.894 13.6591 173.894 14.0249C173.894 14.2688 173.894 14.7566 173.894 15.2444L174.278 15.3664Z" fill="#231815"/>
<path d="M149.691 24.8778C152.892 24.8778 155.325 24.7559 156.734 24.39C158.27 24.0242 159.039 23.0486 159.039 21.5852C159.039 20.1217 158.911 19.9998 158.527 19.2681C158.142 18.5364 157.63 17.8047 156.99 17.073C156.35 16.4632 155.581 15.8534 154.685 15.4876C153.789 15.1217 152.892 14.8778 151.868 14.8778C150.843 14.8778 149.435 15.1217 148.282 15.7315C147.13 16.3412 146.106 17.073 145.209 17.9266C144.441 18.7803 143.673 19.7559 143.16 20.8534C142.648 21.951 142.392 23.0486 142.392 24.0242C142.392 24.9998 142.392 24.2681 142.648 24.512C142.776 24.6339 143.032 24.7559 143.288 24.7559H149.691V24.8778ZM161.728 26.7071H143.16C142.52 26.7071 142.008 26.951 141.88 27.3169C141.752 27.6827 141.624 28.5364 141.624 29.7559C141.624 32.1949 141.88 34.39 142.52 36.3412C143.16 38.2925 143.929 39.8778 144.953 41.2193C146.106 42.5608 147.258 43.5364 148.795 44.39C150.331 45.1217 151.996 45.4876 153.661 45.4876C155.325 45.4876 156.606 45.2437 157.758 44.7559C158.911 44.2681 159.807 43.6583 160.575 43.1705C161.344 42.5608 161.856 42.073 162.24 41.5851C162.624 41.0973 162.88 40.8534 163.136 40.8534C163.521 40.8534 163.649 41.0973 163.649 41.4632C163.649 41.8291 163.392 42.6827 162.752 43.6583C162.24 44.512 161.344 45.3656 160.319 46.2193C159.295 46.951 158.014 47.6827 156.478 48.2925C154.941 48.9022 153.276 49.1461 151.356 49.1461C149.435 49.1461 147.258 48.7803 145.465 47.9266C143.673 47.073 142.136 45.8534 140.855 44.39C139.575 42.9266 138.551 40.9754 137.782 38.7803C137.142 36.5851 136.758 34.1461 136.758 31.4632C136.758 28.7803 137.142 26.3412 138.038 24.1461C138.807 21.951 139.959 19.9998 141.368 18.5364C142.776 16.951 144.441 15.8534 146.234 14.9998C148.154 14.1461 150.075 13.7803 152.124 13.7803C154.173 13.7803 155.581 14.1461 156.99 14.7559C158.398 15.3656 159.679 16.2193 160.703 17.3169C161.728 18.4144 162.496 19.6339 163.008 20.9754C163.521 22.3169 163.905 23.7803 163.905 25.2437C163.905 26.7071 163.777 26.2193 163.392 26.4632C163.136 26.7071 162.496 26.8291 161.6 26.8291L161.728 26.7071Z" fill="#231815"/>
<path d="M126.259 9.87774V13.6582C126.259 14.146 126.259 14.5119 126.387 14.7558C126.515 14.8777 126.899 14.9997 127.283 14.9997H133.045C133.558 14.9997 133.814 14.9997 133.942 15.2436C133.942 15.2436 134.07 15.6094 134.07 15.9753V16.2192C134.07 16.707 134.07 16.9509 133.814 17.1948C133.814 17.4387 133.43 17.4387 133.045 17.4387H127.155C126.643 17.4387 126.387 17.4387 126.259 17.6826C126.259 17.8046 126.131 18.1704 126.131 18.6582V40.3655C126.131 44.146 127.411 45.9753 129.844 45.9753C132.277 45.9753 131.125 45.8533 131.765 45.4875C132.277 45.2436 132.789 44.8777 133.301 44.6338C133.814 44.268 134.198 44.0241 134.454 43.6582C134.71 43.4143 134.966 43.1704 135.094 43.1704C135.222 43.1704 135.35 43.4143 135.35 43.7802C135.35 44.146 135.094 44.3899 134.71 44.9997C134.326 45.4875 133.814 46.0972 133.045 46.707C132.405 47.1948 131.509 47.8046 130.612 48.1704C129.716 48.6582 128.82 48.7802 127.795 48.7802C125.746 48.7802 124.21 48.0485 123.057 46.4631C121.905 44.8777 121.393 42.6826 121.393 39.7558V36.2192L121.649 18.5363C121.649 18.0485 121.649 17.6826 121.393 17.5607C121.393 17.3168 121.009 17.3168 120.496 17.3168H119.344C118.576 17.3168 118.191 17.0729 118.191 16.707C118.191 16.3412 118.576 15.8533 119.344 15.2436C120.112 14.6338 121.137 13.6582 122.289 12.4387C123.442 11.0973 124.21 9.99969 124.594 9.14603C124.978 8.17042 125.362 7.68262 125.746 7.68262C126.131 7.68262 126.003 7.92652 126.003 8.53628V9.75579L126.259 9.87774Z" fill="#231815"/>
<path d="M106.666 13.536C108.331 13.536 109.483 13.536 110.38 13.7799C111.276 13.9019 112.044 14.1458 112.429 14.5116C112.941 14.7555 113.197 15.1214 113.325 15.6092C113.325 15.975 113.453 16.4628 113.453 16.9506V19.9994C113.453 20.975 113.197 21.4628 112.813 21.4628C112.429 21.4628 112.044 21.2189 112.044 20.6092C112.044 19.9994 111.66 19.1458 110.892 18.0482C110.252 16.9506 109.355 16.097 108.459 15.6092C107.435 15.1214 106.41 14.7555 105.386 14.7555C104.361 14.7555 102.569 15.2433 101.544 16.3409C100.52 17.3165 100.008 18.658 100.008 20.2433C100.008 21.8287 100.52 23.2921 101.544 24.2677C102.569 25.2433 104.105 26.2189 106.154 27.1945C107.563 27.8043 108.715 28.4141 109.868 29.0238C111.02 29.6336 111.916 30.2433 112.685 30.975C113.453 31.7067 114.093 32.5604 114.477 33.658C114.99 34.6336 115.118 35.8531 115.118 37.4385C115.118 40.975 114.093 43.7799 112.044 45.7311C109.996 47.8043 107.179 48.7799 103.465 48.7799C99.7516 48.7799 101.416 48.7799 100.392 48.536C99.3674 48.2921 98.4711 48.0482 97.7028 47.6824C96.9344 47.3165 96.2942 46.9506 95.782 46.4628C95.2698 45.975 95.0137 45.3653 95.0137 44.8775C95.0137 44.3897 95.0137 43.7799 95.0137 42.6824C95.0137 41.5848 95.0137 40.2433 95.0137 38.4141C95.0137 36.5848 95.2698 37.1945 95.91 37.1945C96.5503 37.1945 96.6783 37.5604 96.8064 38.4141C96.9344 39.1458 97.3186 40.3653 97.7028 42.0726C98.215 43.9019 98.9833 45.2433 99.7516 46.097C100.648 46.9506 102.056 47.4385 103.977 47.4385C105.898 47.4385 107.947 46.8287 109.227 45.4872C110.636 44.1458 111.276 42.3165 111.276 40.1214C111.276 37.9263 110.764 36.5848 109.612 35.4872C108.459 34.3897 106.666 33.2921 104.361 32.1945C101.544 30.8531 99.3674 29.6336 97.9589 28.2921C96.5503 26.9506 95.91 25.2433 95.91 23.0482C95.91 20.8531 96.8064 17.9263 98.7272 16.097C100.648 14.2677 103.209 13.4141 106.538 13.4141L106.666 13.536Z" fill="#231815"/>
<path d="M88.9943 21.9506V40.6092C88.9943 43.658 89.6346 45.2433 91.0431 45.2433C92.4517 45.2433 92.1956 44.9994 92.5797 44.3897C93.0919 43.9019 93.4761 43.536 93.8603 43.536C94.2444 43.536 94.3724 43.658 94.3724 44.0238C94.3724 44.3897 94.1163 44.8775 93.7322 45.4872C93.348 45.975 92.8358 46.4628 92.1956 46.9506C91.5553 47.4384 90.9151 47.8043 90.1468 48.1702C89.5065 48.536 88.8662 48.658 88.354 48.658C87.3296 48.658 86.5613 48.2921 85.9211 47.5604C85.4089 46.8287 84.8967 45.4872 84.3845 43.7799H84.1284C82.2076 45.3653 80.4149 46.5848 78.8783 47.5604C77.3416 48.536 75.805 49.0238 74.1404 49.0238C72.4757 49.0238 70.811 48.536 69.7866 47.4384C68.7622 46.3409 68.25 44.8775 68.25 43.1702C68.25 41.4628 68.6342 40.4872 69.2744 39.2677C69.9147 38.0482 70.9391 36.8287 72.3476 35.7311C73.7562 34.5116 75.4209 33.2921 77.4697 32.0726C79.5185 30.8531 81.8234 29.5116 84.5125 28.0482V21.4628C84.5125 19.1458 84.2564 17.5604 83.7442 16.5848C83.232 15.6092 82.2076 15.1214 80.671 15.1214C79.1344 15.1214 78.1099 15.6092 76.8294 16.4628C75.677 17.3165 74.7806 18.4141 74.3965 19.6336C73.8843 21.2189 73.244 22.4384 72.7318 23.536C72.2196 24.6336 71.1952 25.1214 69.6586 25.1214C68.122 25.1214 69.0183 25.1214 68.7622 24.8775C68.5061 24.6336 68.3781 24.2677 68.3781 23.9019C68.3781 23.0482 68.7622 21.9506 69.4025 20.7311C70.0427 19.5116 71.0671 18.4141 72.3476 17.3165C73.6282 16.2189 75.0367 15.3653 76.8294 14.5116C78.4941 13.7799 80.4149 13.4141 82.4637 13.4141C84.5125 13.4141 85.4089 13.658 86.3052 14.0238C87.2016 14.3897 87.9699 14.9994 88.354 15.7311C88.8662 16.4628 89.1223 17.3165 89.2504 18.4141C89.2504 19.5116 89.3785 20.6092 89.3785 21.9506H88.9943ZM84.3845 30.975C84.3845 30.4872 84.2564 30.2433 83.8723 30.2433C83.4881 30.2433 83.4881 30.2433 83.1039 30.4872L80.799 31.7067C75.5489 34.6336 72.8598 37.6823 72.8598 40.975C72.8598 44.2677 73.244 43.4141 74.0123 44.2677C74.7806 44.9994 75.805 45.4872 77.0855 45.4872C78.366 45.4872 78.6221 45.3653 79.5185 44.9994C80.4149 44.6336 81.1832 44.1458 81.9515 43.536C82.7198 42.8043 83.36 42.0726 83.8723 41.097C84.3845 40.1214 84.5125 39.0238 84.5125 37.8043V30.975H84.3845Z" fill="#231815"/>
<path d="M50.324 13.536C52.757 13.536 54.9339 13.9019 56.8546 14.7555C58.7754 15.6092 60.4401 16.8287 61.7206 18.2921C63.1292 19.8775 64.0255 21.7067 64.7938 23.9019C65.5621 26.097 65.9463 28.536 65.9463 31.097C65.9463 33.658 65.5621 36.2189 64.7938 38.4141C64.0255 40.6092 63.0011 42.4384 61.5925 44.0238C60.184 45.6092 58.5193 46.7067 56.5985 47.5604C54.6778 48.4141 52.3729 48.7799 49.9399 48.7799C47.5069 48.7799 45.7142 48.2921 43.9215 47.4385C42.1288 46.5848 40.5921 45.3653 39.3116 43.9019C38.0311 42.3165 37.0067 40.4872 36.2384 38.2921C35.4701 36.097 35.0859 33.658 35.0859 31.097C35.0859 28.536 35.4701 25.975 36.2384 23.7799C37.0067 21.5848 38.0311 19.7555 39.4397 18.1702C40.8482 16.5848 42.5129 15.4872 44.3056 14.6336C46.2264 13.7799 48.1472 13.4141 50.324 13.4141V13.536ZM50.4521 14.8775C47.1228 14.8775 44.5617 16.2189 42.641 18.9019C40.7202 21.5848 39.8238 25.4872 39.8238 30.7311C39.8238 35.975 40.0799 35.7311 40.5921 37.8043C41.1043 39.8775 41.8727 41.5848 42.769 43.0482C43.6654 44.5116 44.8178 45.6092 46.0983 46.3409C47.3789 47.0726 48.7874 47.4385 50.324 47.4385C53.6534 47.4385 56.2144 46.097 58.1352 43.536C60.0559 40.8531 60.9523 36.9506 60.9523 31.9506C60.9523 26.9506 59.9279 22.3165 58.0071 19.3897C56.0863 16.4628 53.6534 14.9994 50.4521 14.9994V14.8775Z" fill="#231815"/>
<path d="M13.9577 22.6827C21.7688 22.6827 25.6104 19.5119 25.6104 13.0485C25.6104 6.5851 24.8421 7.31681 23.1774 5.60949C21.6408 3.78023 19.592 2.80462 16.9029 2.80462C14.2138 2.80462 14.4699 2.80462 13.7016 3.04852C12.9333 3.04852 12.4211 3.29242 12.0369 3.65827C11.6528 3.90218 11.3967 4.38998 11.3967 4.87779C11.3967 5.36559 11.2686 5.97535 11.2686 6.70705V21.5851C11.2686 22.0729 11.2686 22.4388 11.3967 22.6827C11.5247 22.8046 11.9089 22.9266 12.293 22.9266H13.8297L13.9577 22.6827ZM20.2322 23.6583C21.6408 24.1461 22.5371 25.1217 23.3054 26.3412C23.9457 27.5607 24.714 29.0241 25.4823 30.7314L28.9397 38.5363C29.8361 40.6095 30.4763 42.0729 30.9885 43.1705C31.5007 44.268 32.0129 44.8778 32.5251 45.1217C33.4215 45.4875 34.1898 45.7314 34.8301 45.8534C35.4703 45.8534 35.8545 46.2192 35.8545 46.829C35.8545 47.4388 35.5984 47.5607 34.9581 47.5607C34.3178 47.5607 34.4459 47.5607 34.0617 47.5607C33.8056 47.5607 33.4215 47.5607 32.9093 47.5607C32.141 47.5607 31.3727 47.5607 30.7324 47.5607C30.0922 47.5607 29.58 47.5607 29.0677 47.5607C28.1714 47.5607 27.5311 47.4388 27.275 47.0729C27.0189 46.7071 26.6348 45.9753 26.1226 45.1217L19.3359 29.9997C18.8237 28.9022 18.4395 28.0485 18.1834 27.4388C17.9273 26.7071 17.5431 26.2192 17.0309 25.8534C16.6468 25.3656 16.1346 25.1217 15.4943 24.9997C14.9821 24.7558 14.0858 24.7558 13.1894 24.7558H12.293C11.7808 24.7558 11.5247 24.7558 11.3967 24.9997C11.3967 25.1217 11.2686 25.4875 11.2686 25.9753V40.7314C11.2686 42.1949 11.2686 43.1705 11.5247 43.7802C11.6528 44.268 12.165 44.7558 12.8052 44.9997C13.3175 45.2436 13.7016 45.3656 14.0858 45.3656C14.4699 45.3656 14.8541 45.3656 15.2382 45.4875C15.6224 45.4875 15.8785 45.4875 16.0065 45.7314C16.2626 45.8534 16.2626 46.2192 16.2626 46.5851C16.2626 47.3168 15.7504 47.6827 14.726 47.6827C13.7016 47.6827 13.5736 47.6827 12.5491 47.5607C11.5247 47.4388 10.2442 47.3168 8.57956 47.3168C6.91489 47.3168 5.50633 47.3168 4.48192 47.5607C3.45751 47.5607 2.81725 47.6827 2.4331 47.6827C1.40869 47.6827 0.896484 47.3168 0.896484 46.4632C0.896484 45.6095 1.53674 45.3656 2.81725 45.3656C4.09776 45.3656 4.86607 45.1217 5.25023 44.5119C5.63438 43.9022 5.89048 43.1705 5.89048 42.1949V41.7071C5.89048 41.4632 5.89048 41.0973 5.89048 40.7314V6.5851C5.89048 5.48754 5.89048 4.63388 5.63438 4.26803C5.63438 3.78023 5.12217 3.53632 4.35387 3.17047C3.96971 3.04852 3.58556 2.92657 3.20141 2.92657C2.81725 2.92657 2.56115 2.92657 2.177 2.92657C1.92089 2.92657 1.66479 2.80462 1.53674 2.68266C1.40869 2.56071 1.28064 2.31681 1.28064 1.82901C1.28064 1.0973 1.79284 0.731445 2.6892 0.731445C3.58556 0.731445 3.96971 0.731445 4.99412 0.731445C6.14658 0.731445 7.4271 0.731445 9.09176 0.731445C10.7564 0.731445 10.8845 0.731445 12.0369 0.731445C13.0613 0.731445 14.2138 0.731445 15.6224 0.731445C20.6164 0.731445 24.3299 1.5851 26.8909 3.41437C29.3238 5.24364 30.6044 8.04852 30.6044 12.0729C30.6044 16.0973 29.708 17.8046 27.9153 19.7558C26.1226 21.7071 23.5615 22.9266 20.2322 23.4144V23.6583Z" fill="#231815"/>
<path d="M2.268 70.238C3.006 70.256 3.69 70.274 4.176 70.274H14.076C14.526 70.274 15.21 70.274 15.858 70.238C15.822 70.778 15.822 71.444 15.822 71.984V80.804C15.822 81.506 15.858 83.234 15.858 83.306H13.374C13.374 83.27 13.392 82.856 13.392 82.334H4.716C4.734 82.838 4.734 83.252 4.734 83.306H2.25C2.25 83.216 2.304 81.65 2.304 80.786V71.984C2.304 71.48 2.304 70.742 2.268 70.238ZM4.716 72.56V80.03H13.41V72.56H4.716ZM19.656 74.666C20.304 74.72 21.618 74.774 22.554 74.774H32.22C33.066 74.774 33.858 74.702 34.326 74.666V77.492C33.894 77.474 32.976 77.402 32.22 77.402H22.554C21.528 77.402 20.322 77.438 19.656 77.492V74.666ZM50.1155 70.796C49.9715 70.994 49.6475 71.552 49.4855 71.912C48.8735 73.316 47.8655 75.242 46.6595 76.862C48.4415 78.41 50.6195 80.714 51.6815 82.01L49.6295 83.792C48.4595 82.172 46.7855 80.336 45.0935 78.698C43.1855 80.714 40.7915 82.586 38.3255 83.756L36.4715 81.812C39.3695 80.732 42.1595 78.536 43.8515 76.646C45.0395 75.296 46.1375 73.514 46.5335 72.236H40.4315C39.6755 72.236 38.6855 72.344 38.3075 72.362V69.806C38.7935 69.878 39.8915 69.932 40.4315 69.932H46.7855C47.5595 69.932 48.2795 69.824 48.6395 69.698L50.1155 70.796ZM63.3455 68.744C62.8955 69.374 62.4455 70.184 62.2295 70.58H65.8835C66.4415 70.58 67.0535 70.508 67.4495 70.382L69.2855 71.516C69.0875 71.858 68.8535 72.344 68.6915 72.794C68.2055 74.252 67.3055 76.178 66.0275 77.978C66.8015 78.536 67.5035 79.058 68.0255 79.49L66.3155 81.524C65.8295 81.074 65.1635 80.516 64.4255 79.922C62.8415 81.596 60.7895 83.126 57.9815 84.188L55.8935 82.37C59.0075 81.416 61.0055 79.958 62.4995 78.464C61.3295 77.6 60.1415 76.79 59.2235 76.214L60.8255 74.576C61.7795 75.116 62.9135 75.854 64.0475 76.61C64.9835 75.314 65.7575 73.748 66.0275 72.632H60.8795C59.6195 74.306 57.9455 76.034 56.1275 77.294L54.1835 75.8C57.3335 73.838 59.0075 71.372 59.9075 69.806C60.1955 69.374 60.5735 68.546 60.7355 67.934L63.3455 68.744ZM72.7595 74.666C73.4075 74.72 74.7215 74.774 75.6575 74.774H85.3235C86.1695 74.774 86.9615 74.702 87.4295 74.666V77.492C86.9975 77.474 86.0795 77.402 85.3235 77.402H75.6575C74.6315 77.402 73.4255 77.438 72.7595 77.492V74.666ZM91.9295 70.22C92.5955 70.292 93.5315 70.328 94.1435 70.328H103.216C103.738 70.328 104.494 70.31 104.8 70.292C104.782 70.706 104.746 71.426 104.746 71.948V81.272C104.746 81.902 104.782 82.856 104.818 83.396H102.208C102.226 83.108 102.226 82.802 102.226 82.46H94.0175C93.3155 82.46 92.2895 82.514 91.6955 82.568V79.994C92.3255 80.048 93.1355 80.102 93.9455 80.102H102.244V72.65H94.1615C93.4055 72.65 92.4335 72.686 91.9295 72.722V70.22ZM108.76 74.666C109.408 74.72 110.722 74.774 111.658 74.774H121.324C122.17 74.774 122.962 74.702 123.43 74.666V77.492C122.998 77.474 122.08 77.402 121.324 77.402H111.658C110.632 77.402 109.426 77.438 108.76 77.492V74.666ZM139.219 70.796C139.075 70.994 138.751 71.552 138.589 71.912C137.977 73.316 136.969 75.242 135.763 76.862C137.545 78.41 139.723 80.714 140.785 82.01L138.733 83.792C137.563 82.172 135.889 80.336 134.197 78.698C132.289 80.714 129.895 82.586 127.429 83.756L125.575 81.812C128.473 80.732 131.263 78.536 132.955 76.646C134.143 75.296 135.241 73.514 135.637 72.236H129.535C128.779 72.236 127.789 72.344 127.411 72.362V69.806C127.897 69.878 128.995 69.932 129.535 69.932H135.889C136.663 69.932 137.383 69.824 137.743 69.698L139.219 70.796Z" fill="#231815"/>
</svg>
