<svg width="165" height="102" viewBox="0 0 165 102" fill="none" xmlns="http://www.w3.org/2000/svg">
<path d="M17.762 87.526C18.266 88.264 19.058 89.578 19.454 90.406L17.834 91.108C17.312 89.974 16.862 89.092 16.196 88.174L17.762 87.526ZM20.174 86.536C20.696 87.256 21.506 88.534 21.92 89.344L20.354 90.1C19.778 88.966 19.292 88.138 18.626 87.238L20.174 86.536ZM5.63 94.87C6.17 94.438 6.566 94.042 7.124 93.502C7.934 92.674 9.338 90.91 10.58 89.434C11.642 88.174 12.704 87.976 14.108 89.29C15.314 90.424 16.7 91.864 17.78 93.034C18.986 94.312 20.822 96.31 22.208 97.786L20.228 99.91C19.022 98.416 17.492 96.562 16.43 95.32C15.386 94.078 13.784 92.332 13.136 91.666C12.56 91.09 12.182 91.126 11.66 91.774C10.958 92.674 9.68 94.456 8.96 95.428C8.546 96.004 8.114 96.634 7.79 97.102L5.63 94.87ZM24.656 91.666C25.304 91.72 26.618 91.774 27.554 91.774H37.22C38.066 91.774 38.858 91.702 39.326 91.666V94.492C38.894 94.474 37.976 94.402 37.22 94.402H27.554C26.528 94.402 25.322 94.438 24.656 94.492V91.666ZM46.2104 85.744C47.3984 86.392 49.3784 87.67 50.3144 88.318L48.9644 90.316C47.9564 89.614 46.0844 88.39 44.8964 87.724L46.2104 85.744ZM42.8624 98.524C44.8784 98.182 47.0384 97.588 49.0004 96.508C52.0604 94.798 54.5624 92.332 56.0024 89.758L57.3884 92.206C55.7144 94.69 53.1764 96.976 50.2244 98.668C48.3884 99.712 45.8144 100.612 44.2124 100.9L42.8624 98.524ZM43.4384 89.848C44.6444 90.496 46.6244 91.738 47.5424 92.386L46.2284 94.402C45.2024 93.7 43.3304 92.476 42.1244 91.846L43.4384 89.848ZM67.7384 89.308C68.0804 90.082 68.9624 92.422 69.2144 93.25L67.0544 94.006C66.8384 93.124 66.0464 90.946 65.5964 90.01L67.7384 89.308ZM74.3804 90.622C74.1644 91.198 74.0564 91.576 73.9484 91.936C73.4804 93.754 72.7244 95.626 71.5004 97.21C69.8264 99.37 67.5764 100.882 65.4704 101.674L63.5804 99.748C65.5604 99.226 68.0624 97.858 69.5564 95.986C70.7804 94.456 71.6444 92.062 71.8604 89.812L74.3804 90.622ZM63.5624 90.262C64.0124 91.18 64.8764 93.358 65.2364 94.366L63.0404 95.194C62.7344 94.222 61.8344 91.828 61.4024 91.036L63.5624 90.262ZM86.9624 85.96C86.5484 86.59 86.0804 87.4 85.8644 87.796C85.8464 87.832 85.8284 87.85 85.8104 87.886H89.4284C89.9864 87.886 90.5804 87.796 90.9944 87.67L92.8304 88.804C92.6324 89.146 92.3804 89.65 92.2364 90.1C91.7504 91.702 90.7244 94.096 89.1044 96.112C87.3944 98.2 85.2164 99.856 81.8324 101.188L79.7084 99.28C83.3984 98.182 85.3964 96.616 86.9624 94.834C88.1864 93.43 89.2304 91.27 89.5184 89.92H84.4604C83.2544 91.486 81.6884 93.07 79.9244 94.276L77.9084 92.782C81.0584 90.856 82.6244 88.534 83.5244 86.986C83.7944 86.536 84.1724 85.708 84.3344 85.096L86.9624 85.96ZM97.4744 87.22C98.1404 87.292 99.0764 87.328 99.6884 87.328H108.76C109.282 87.328 110.038 87.31 110.344 87.292C110.326 87.706 110.29 88.426 110.29 88.948V98.272C110.29 98.902 110.326 99.856 110.362 100.396H107.752C107.77 100.108 107.77 99.802 107.77 99.46H99.5624C98.8604 99.46 97.8344 99.514 97.2404 99.568V96.994C97.8704 97.048 98.6804 97.102 99.4904 97.102H107.788V89.65H99.7064C98.9504 89.65 97.9784 89.686 97.4744 89.722V87.22ZM114.304 91.666C114.952 91.72 116.266 91.774 117.202 91.774H126.868C127.714 91.774 128.506 91.702 128.974 91.666V94.492C128.542 94.474 127.624 94.402 126.868 94.402H117.202C116.176 94.402 114.97 94.438 114.304 94.492V91.666ZM144.764 87.796C144.62 87.994 144.296 88.552 144.134 88.912C143.522 90.316 142.514 92.242 141.308 93.862C143.09 95.41 145.268 97.714 146.33 99.01L144.278 100.792C143.108 99.172 141.434 97.336 139.742 95.698C137.834 97.714 135.44 99.586 132.974 100.756L131.12 98.812C134.018 97.732 136.808 95.536 138.5 93.646C139.688 92.296 140.786 90.514 141.182 89.236H135.08C134.324 89.236 133.334 89.344 132.956 89.362V86.806C133.442 86.878 134.54 86.932 135.08 86.932H141.434C142.208 86.932 142.928 86.824 143.288 86.698L144.764 87.796Z" fill="black"/>
<path d="M13.668 38.78H27.54C29.58 38.78 31.28 38.2133 32.64 37.08C34 35.9013 34.68 34.224 34.68 32.048C34.68 29.6 34.068 27.8773 32.844 26.88C31.62 25.8827 29.852 25.384 27.54 25.384H13.668V38.78ZM5.168 18.448H28.764C33.116 18.448 36.6067 19.4453 39.236 21.44C41.8653 23.4347 43.18 26.4493 43.18 30.484C43.18 32.932 42.568 35.04 41.344 36.808C40.1653 38.5307 38.4653 39.868 36.244 40.82V40.956C39.236 41.5907 41.5027 43.0187 43.044 45.24C44.5853 47.416 45.356 50.1587 45.356 53.468C45.356 55.372 45.016 57.1627 44.336 58.84C43.656 60.472 42.5907 61.9 41.14 63.124C39.6893 64.3027 37.8307 65.2547 35.564 65.98C33.2973 66.66 30.6 67 27.472 67H5.168V18.448ZM13.668 60.064H28.696C31.28 60.064 33.2747 59.4067 34.68 58.092C36.1307 56.732 36.856 54.828 36.856 52.38C36.856 49.9773 36.1307 48.1413 34.68 46.872C33.2747 45.5573 31.28 44.9 28.696 44.9H13.668V60.064ZM78.6829 59.18C78.6829 60.132 78.7962 60.812 79.0229 61.22C79.2949 61.628 79.7936 61.832 80.5189 61.832C80.7456 61.832 81.0176 61.832 81.3349 61.832C81.6522 61.832 82.0149 61.7867 82.4229 61.696V67.068C82.1509 67.1587 81.7882 67.2493 81.3349 67.34C80.9269 67.476 80.4962 67.5893 80.0429 67.68C79.5896 67.7707 79.1362 67.8387 78.6829 67.884C78.2296 67.9293 77.8442 67.952 77.5269 67.952C75.9402 67.952 74.6256 67.6347 73.5829 67C72.5402 66.3653 71.8602 65.2547 71.5429 63.668C70.0016 65.164 68.0976 66.252 65.8309 66.932C63.6096 67.612 61.4562 67.952 59.3709 67.952C57.7842 67.952 56.2656 67.7253 54.8149 67.272C53.3642 66.864 52.0722 66.252 50.9389 65.436C49.8509 64.5747 48.9669 63.5093 48.2869 62.24C47.6522 60.9253 47.3349 59.4067 47.3349 57.684C47.3349 55.508 47.7202 53.74 48.4909 52.38C49.3069 51.02 50.3496 49.9547 51.6189 49.184C52.9336 48.4133 54.3842 47.8693 55.9709 47.552C57.6029 47.1893 59.2349 46.9173 60.8669 46.736C62.2722 46.464 63.6096 46.2827 64.8789 46.192C66.1482 46.056 67.2589 45.852 68.2109 45.58C69.2082 45.308 69.9789 44.9 70.5229 44.356C71.1122 43.7667 71.4069 42.9053 71.4069 41.772C71.4069 40.7747 71.1576 39.9587 70.6589 39.324C70.2056 38.6893 69.6162 38.2133 68.8909 37.896C68.2109 37.5333 67.4402 37.3067 66.5789 37.216C65.7176 37.08 64.9016 37.012 64.1309 37.012C61.9549 37.012 60.1642 37.4653 58.7589 38.372C57.3536 39.2787 56.5602 40.684 56.3789 42.588H48.6269C48.7629 40.3213 49.3069 38.44 50.2589 36.944C51.2109 35.448 52.4122 34.2467 53.8629 33.34C55.3589 32.4333 57.0362 31.7987 58.8949 31.436C60.7536 31.0733 62.6576 30.892 64.6069 30.892C66.3296 30.892 68.0296 31.0733 69.7069 31.436C71.3842 31.7987 72.8802 32.388 74.1949 33.204C75.5549 34.02 76.6429 35.0853 77.4589 36.4C78.2749 37.6693 78.6829 39.2333 78.6829 41.092V59.18ZM70.9309 49.388C69.7522 50.1587 68.3016 50.6347 66.5789 50.816C64.8562 50.952 63.1336 51.1787 61.4109 51.496C60.5949 51.632 59.8016 51.836 59.0309 52.108C58.2602 52.3347 57.5802 52.6747 56.9909 53.128C56.4016 53.536 55.9256 54.1027 55.5629 54.828C55.2456 55.508 55.0869 56.3467 55.0869 57.344C55.0869 58.2053 55.3362 58.9307 55.8349 59.52C56.3336 60.1093 56.9229 60.5853 57.6029 60.948C58.3282 61.2653 59.0989 61.492 59.9149 61.628C60.7762 61.764 61.5469 61.832 62.2269 61.832C63.0882 61.832 64.0176 61.7187 65.0149 61.492C66.0122 61.2653 66.9416 60.88 67.8029 60.336C68.7096 59.792 69.4576 59.112 70.0469 58.296C70.6362 57.4347 70.9309 56.392 70.9309 55.168V49.388ZM90.1521 55.712C90.3787 57.9787 91.2401 59.5653 92.7361 60.472C94.2321 61.3787 96.0227 61.832 98.1081 61.832C98.8334 61.832 99.6494 61.7867 100.556 61.696C101.508 61.56 102.392 61.3333 103.208 61.016C104.024 60.6987 104.681 60.2453 105.18 59.656C105.724 59.0213 105.973 58.2053 105.928 57.208C105.883 56.2107 105.52 55.3947 104.84 54.76C104.16 54.1253 103.276 53.6267 102.188 53.264C101.145 52.856 99.9441 52.516 98.5841 52.244C97.2241 51.972 95.8414 51.6773 94.4361 51.36C92.9854 51.0427 91.5801 50.6573 90.2201 50.204C88.9054 49.7507 87.7041 49.1387 86.6161 48.368C85.5734 47.5973 84.7347 46.6227 84.1001 45.444C83.4654 44.22 83.1481 42.724 83.1481 40.956C83.1481 39.052 83.6014 37.4653 84.5081 36.196C85.4601 34.8813 86.6387 33.8387 88.0441 33.068C89.4947 32.252 91.0814 31.6853 92.8041 31.368C94.5721 31.0507 96.2494 30.892 97.8361 30.892C99.6494 30.892 101.372 31.096 103.004 31.504C104.681 31.8667 106.177 32.4787 107.492 33.34C108.852 34.2013 109.963 35.3347 110.824 36.74C111.731 38.1 112.297 39.7547 112.524 41.704H104.432C104.069 39.8453 103.208 38.5987 101.848 37.964C100.533 37.3293 99.0147 37.012 97.2921 37.012C96.7481 37.012 96.0907 37.0573 95.3201 37.148C94.5947 37.2387 93.8921 37.42 93.2121 37.692C92.5774 37.9187 92.0334 38.2813 91.5801 38.78C91.1267 39.2333 90.9001 39.8453 90.9001 40.616C90.9001 41.568 91.2174 42.3387 91.8521 42.928C92.5321 43.5173 93.3934 44.016 94.4361 44.424C95.5241 44.7867 96.7481 45.104 98.1081 45.376C99.4681 45.648 100.873 45.9427 102.324 46.26C103.729 46.5773 105.112 46.9627 106.472 47.416C107.832 47.8693 109.033 48.4813 110.076 49.252C111.164 50.0227 112.025 50.9973 112.66 52.176C113.34 53.3547 113.68 54.8053 113.68 56.528C113.68 58.6133 113.204 60.3813 112.252 61.832C111.3 63.2827 110.053 64.4613 108.512 65.368C107.016 66.2747 105.339 66.932 103.48 67.34C101.621 67.748 99.7854 67.952 97.9721 67.952C95.7507 67.952 93.6881 67.7027 91.7841 67.204C89.9254 66.7053 88.2934 65.9573 86.8881 64.96C85.5281 63.9173 84.4401 62.648 83.6241 61.152C82.8534 59.6107 82.4454 57.7973 82.4001 55.712H90.1521ZM117.05 18.448H124.802V25.792H117.05V18.448ZM117.05 31.844H124.802V67H117.05V31.844ZM154.26 43.608C153.943 41.432 153.059 39.8 151.608 38.712C150.203 37.5787 148.412 37.012 146.236 37.012C145.239 37.012 144.173 37.1933 143.04 37.556C141.907 37.8733 140.864 38.508 139.912 39.46C138.96 40.3667 138.167 41.6587 137.532 43.336C136.897 44.968 136.58 47.1213 136.58 49.796C136.58 51.2467 136.739 52.6973 137.056 54.148C137.419 55.5987 137.963 56.8907 138.688 58.024C139.459 59.1573 140.433 60.0867 141.612 60.812C142.791 61.492 144.219 61.832 145.896 61.832C148.163 61.832 150.021 61.1293 151.472 59.724C152.968 58.3187 153.897 56.3467 154.26 53.808H162.012C161.287 58.3867 159.541 61.9 156.776 64.348C154.056 66.7507 150.429 67.952 145.896 67.952C143.131 67.952 140.683 67.4987 138.552 66.592C136.467 65.64 134.699 64.3707 133.248 62.784C131.797 61.152 130.687 59.2253 129.916 57.004C129.191 54.7827 128.828 52.38 128.828 49.796C128.828 47.1667 129.191 44.696 129.916 42.384C130.641 40.072 131.729 38.0773 133.18 36.4C134.631 34.6773 136.421 33.34 138.552 32.388C140.728 31.3907 143.267 30.892 146.168 30.892C148.208 30.892 150.135 31.164 151.948 31.708C153.807 32.2067 155.439 32.9773 156.844 34.02C158.295 35.0627 159.473 36.3773 160.38 37.964C161.287 39.5507 161.831 41.432 162.012 43.608H154.26Z" fill="black"/>
</svg>
